<?xml version="1.0" encoding="UTF-8" standalone="no"?>
<!-- Created with Inkscape (http://www.inkscape.org/) -->

<svg
   xmlns:dc="http://purl.org/dc/elements/1.1/"
   xmlns:cc="http://creativecommons.org/ns#"
   xmlns:rdf="http://www.w3.org/1999/02/22-rdf-syntax-ns#"
   xmlns:svg="http://www.w3.org/2000/svg"
   xmlns="http://www.w3.org/2000/svg"
   xmlns:sodipodi="http://sodipodi.sourceforge.net/DTD/sodipodi-0.dtd"
   xmlns:inkscape="http://www.inkscape.org/namespaces/inkscape"
   width="200"
   height="193.353"
   viewBox="0 0 52.916665 51.157982"
   version="1.1"
   id="svg8"
   inkscape:version="0.92.3 (2405546, 2018-03-11)"
   sodipodi:docname="Rhodium-logo.svg">
  <defs
     id="defs2" />
  <sodipodi:namedview
     id="base"
     pagecolor="#ffffff"
     bordercolor="#666666"
     borderopacity="1.0"
     inkscape:pageopacity="0.0"
     inkscape:pageshadow="2"
     inkscape:zoom="0.51718892"
     inkscape:cx="574.08002"
     inkscape:cy="308.64875"
     inkscape:document-units="mm"
     inkscape:current-layer="layer1"
     showgrid="false"
     units="px"
     inkscape:window-width="1920"
     inkscape:window-height="1027"
     inkscape:window-x="-8"
     inkscape:window-y="-8"
     inkscape:window-maximized="1" />
  <metadata
     id="metadata5">
    <rdf:RDF>
      <cc:Work
         rdf:about="">
        <dc:format>image/svg+xml</dc:format>
        <dc:type
           rdf:resource="http://purl.org/dc/dcmitype/StillImage" />
        <dc:title></dc:title>
      </cc:Work>
    </rdf:RDF>
  </metadata>
  <g
     inkscape:label="Ebene 1"
     inkscape:groupmode="layer"
     id="layer1"
     transform="translate(0,-245.84199)">
    <path
       style="fill:#f2f5f4;stroke-width:0.27155125;fill-opacity:1"
       d="m 26.701271,296.16202 c -1.610762,-1.23142 -3.887359,-2.3178 -6.572478,-3.13635 -4.742779,-1.44581 -11.5480492,-0.76997 -16.8326793,1.67168 -1.133762,0.52383 -2.36291165,0.95243 -2.73144818,0.95243 -0.59347848,0 -0.6489006,-0.0843 -0.48484088,-0.73807 0.28732262,-1.14474 1.45152576,-2.54805 3.68906026,-4.4467 1.5515215,-1.31654 2.9553617,-2.16315 5.7704562,-3.48 l 3.7201369,-1.7402 -0.0052,-0.97531 c -0.0082,-1.75093 -0.765481,-4.61719 -1.675472,-6.34383 -1.313073,-2.49142 -5.4805056,-6.58726 -8.0536619,-7.91529 -1.0970603,-0.56621 -1.8913413,-1.12139 -1.7650918,-1.23375 0.1262598,-0.11235 2.7651736,-1.94326 5.864253,-4.06866 l 5.6346837,-3.86438 v -3.38405 c 0,-3.73069 -0.161032,-4.27928 -1.674025,-5.70279 -1.8365035,-1.72787 -3.7465138,-2.26434 -5.8135206,-1.63283 -1.7220369,0.52611 -3.3284675,0.74251 -3.4962835,0.47099 -0.2033171,-0.32898 1.0750556,-1.92052 2.0758455,-2.58438 2.7254523,-1.80786 6.8637806,-2.63944 9.4453216,-1.898 1.856826,0.53331 3.606399,1.62919 5.038763,3.15612 1.781051,1.89865 2.038672,2.26854 2.681477,3.85012 l 0.612712,1.50753 6.272798,-4.19942 c 3.450046,-2.3097 6.381189,-4.19944 6.513648,-4.19944 0.23422,0 9.731897,13.24306 10.001433,13.94546 0.08477,0.22089 -1.686628,1.60153 -4.763797,3.71297 -2.694295,1.84874 -4.89872,3.43837 -4.89872,3.53252 0,0.0941 1.347312,1.32184 2.994026,2.72823 4.221123,3.60507 5.370731,5.389 8.070651,12.52377 2.060306,5.44453 3.203747,7.52393 3.943755,7.17191 0.183817,-0.0875 0.587423,-0.34448 0.896894,-0.57119 0.516863,-0.37864 0.611276,-0.36048 1.159667,0.22327 l 0.596989,0.63546 -3.686177,3.19477 c -3.47858,3.01484 -3.737482,3.18513 -4.597285,3.02383 -2.039995,-0.38271 -3.626772,-3.07786 -5.970347,-10.14073 -1.7245,-5.19716 -2.681701,-6.91455 -5.160528,-9.25892 -1.68905,-1.59744 -4.2756,-2.92922 -6.201755,-3.19324 l -1.288636,-0.17663 0.07287,6.47229 0.07287,6.47229 3.635598,1.45512 3.635609,1.45513 0.781975,-0.74919 0.781975,-0.74917 0.589753,0.58975 0.589743,0.58975 -1.734415,1.8418 c -4.616682,4.90251 -5.795336,6.05026 -6.206065,6.04328 -0.244679,-0.004 -0.933658,-0.38123 -1.531068,-0.83795 z m -2.851294,-25.36169 v -15.34514 l -0.947071,0.61348 -0.947071,0.6135 -0.003,14.57325 c -0.0041,15.48374 -0.06086,14.82134 1.286512,14.86862 l 0.610997,0.0214 z m 13.36606,-7.06388 c -0.718363,-1.23673 -7.83951,-11.24714 -8.006074,-11.25436 -0.113748,-0.005 -0.814192,0.38817 -1.55654,0.87357 l -1.349724,0.88255 -0.0052,8.62247 -0.0052,8.62247 5.55896,-3.70479 c 3.770972,-2.51318 5.495975,-3.81322 5.363137,-4.04191 z m -24.061563,-0.5968 c -0.0664,-0.0664 -1.256964,0.64316 -2.645605,1.57687 l -2.5247956,1.69768 1.0527226,0.83655 c 0.5789968,0.46012 1.73541,1.42737 2.56981,2.14946 l 1.517089,1.31289 0.07574,-3.72631 c 0.04167,-2.04947 0.02145,-3.78069 -0.04506,-3.84714 z"
       id="path32"
       inkscape:connector-curvature="0" />
  </g>
</svg>
